<svg width="20" height="16" viewBox="0 0 20 16" fill="none" xmlns="http://www.w3.org/2000/svg">
<path d="M19.6 8.73043L13.1044 15.2522C12.8957 15.4609 12.6348 15.5652 12.3739 15.5652C12.113 15.5652 11.8522 15.4609 11.6435 15.2522C11.2261 14.8348 11.2261 14.1826 11.6435 13.7652L16.3652 9.04347H1.13044C0.556525 9.04347 0.0869598 8.57391 0.0869598 8C0.0869598 7.42608 0.556525 6.95652 1.13044 6.95652H16.3652L11.6174 2.20869C11.2 1.7913 11.2 1.13913 11.6174 0.721735C12.0348 0.304344 12.687 0.304344 13.1044 0.721735L19.6 7.24347C20.0174 7.66086 20.0174 8.33913 19.6 8.73043Z" fill="black"/>
</svg>
