<svg width="110" height="108" viewBox="0 0 110 108" fill="none" xmlns="http://www.w3.org/2000/svg">
<path d="M70.1729 27.5875C73.1345 27.5875 75.544 25.178 75.544 22.2164C75.544 19.2548 73.1345 16.8451 70.1729 16.8451C67.2113 16.8451 64.8018 19.2548 64.8018 22.2164C64.8018 23.426 65.204 24.5432 65.8814 25.4421L57.0565 37.7743C56.5299 37.6014 55.9681 37.5064 55.3841 37.5064C53.9728 37.5064 52.6876 38.0545 51.7281 38.9478L45.8459 35.61C45.9244 35.2456 45.9665 34.8679 45.9665 34.4805C45.9665 31.5189 43.557 29.1094 40.5954 29.1094C37.6338 29.1094 35.2243 31.5189 35.2243 34.4805C35.2243 34.8679 35.2664 35.2456 35.3448 35.61L29.4626 38.9478C28.5031 38.0545 27.2179 37.5066 25.8066 37.5066C22.845 37.5066 20.4355 39.9163 20.4355 42.8779C20.4355 45.8396 22.845 48.2492 25.8066 48.2492C28.7682 48.2492 31.1777 45.8396 31.1777 42.8779C31.1777 42.4906 31.1356 42.1129 31.0572 41.7485L36.9394 38.4107C37.8989 39.304 39.1841 39.8521 40.5954 39.8521C42.0067 39.8521 43.2917 39.304 44.2514 38.4109L50.1336 41.7487C50.0552 42.1131 50.0131 42.4908 50.0131 42.8781C50.0131 45.8398 52.4225 48.2495 55.3841 48.2495C58.346 48.2495 60.7555 45.8398 60.7555 42.8781C60.7555 41.6684 60.3531 40.551 59.6756 39.652L68.5006 27.3198C69.0269 27.4925 69.589 27.5875 70.1729 27.5875ZM70.1729 20.0677C71.3576 20.0677 72.3214 21.0315 72.3214 22.2164C72.3214 23.4011 71.3576 24.3648 70.1729 24.3648C68.9883 24.3648 68.0245 23.4011 68.0245 22.2164C68.0243 21.0315 68.9881 20.0677 70.1729 20.0677ZM25.806 45.0262C24.6213 45.0262 23.6575 44.0624 23.6575 42.8775C23.6575 41.6926 24.6213 40.7288 25.806 40.7288C26.9906 40.7288 27.9544 41.6926 27.9544 42.8775C27.9544 44.0624 26.9906 45.0262 25.806 45.0262ZM40.5949 36.629C39.4103 36.629 38.4465 35.6652 38.4465 34.4803C38.4465 33.2957 39.4103 32.3319 40.5949 32.3319C41.7796 32.3319 42.7434 33.2957 42.7434 34.4803C42.7436 35.6652 41.7796 36.629 40.5949 36.629ZM55.3839 45.0262C54.1993 45.0262 53.2355 44.0624 53.2355 42.8775C53.2355 41.6926 54.1993 40.7288 55.3839 40.7288C56.5688 40.7288 57.5326 41.6926 57.5326 42.8775C57.5326 44.0624 56.5686 45.0262 55.3839 45.0262Z" fill="#333333"/>
<path d="M89.9757 79.9885H78.6994H17.2795H4.55791C3.82164 79.9885 3.22266 79.3896 3.22266 78.6533V12.1766C3.22266 11.4403 3.82164 10.8413 4.55791 10.8413H12.1539C13.0438 10.8413 13.7653 10.1201 13.7653 9.22998C13.7653 8.33988 13.0438 7.61865 12.1539 7.61865H4.55791C2.04467 7.61865 0 9.66332 0 12.1766V78.6533C0 81.1665 2.04467 83.2112 4.55791 83.2112H15.6681V86.7574C15.6681 88.7776 17.3117 90.4211 19.3319 90.4211H35.461L27.8685 105.245C27.4628 106.037 27.7759 107.008 28.568 107.414C28.803 107.534 29.054 107.591 29.3013 107.591C29.8867 107.591 30.4515 107.271 30.7366 106.714L39.0818 90.4211H56.8971L65.2422 106.714C65.5276 107.271 66.0922 107.591 66.6776 107.591C66.9249 107.591 67.1758 107.534 67.4109 107.414C68.203 107.008 68.5163 106.037 68.1104 105.245L60.5178 90.4211H76.647C78.6672 90.4211 80.3107 88.7778 80.3107 86.7574V83.2112H89.9757C90.8656 83.2112 91.587 82.49 91.587 81.5999C91.587 80.7098 90.8656 79.9885 89.9757 79.9885ZM77.0881 86.7574C77.0881 87.0006 76.8902 87.1985 76.647 87.1985H19.3319C19.0887 87.1985 18.8908 87.0006 18.8908 86.7574V83.2112H77.0881V86.7574Z" fill="#333333"/>
<path d="M18.5992 10.8413H40.6577H55.321H91.4208C92.157 10.8413 92.756 11.4403 92.756 12.1766V27.4973C92.756 28.3874 93.4775 29.1086 94.3673 29.1086C95.2572 29.1086 95.9787 28.3874 95.9787 27.4973V12.1766C95.9787 9.66333 93.934 7.61866 91.4208 7.61866H56.9325V4.45144C56.9325 2.22243 55.119 0.408936 52.8898 0.408936H43.0891C40.8601 0.408936 39.0464 2.22243 39.0464 4.45144V7.61866H18.5992C17.7094 7.61866 16.9879 8.33989 16.9879 9.22999C16.9879 10.1201 17.7094 10.8413 18.5992 10.8413ZM42.269 4.45144C42.269 3.9994 42.6368 3.63159 43.0891 3.63159H52.8898C53.3418 3.63159 53.7099 3.9994 53.7099 4.45144V7.61866H42.2692V4.45144H42.269Z" fill="#333333"/>
<path d="M22.5375 56.4871C21.6477 56.4871 20.9262 57.2083 20.9262 58.0984V72.3365C20.9262 73.2266 21.6477 73.9478 22.5375 73.9478H29.0746C29.9645 73.9478 30.6859 73.2266 30.6859 72.3365V58.0984C30.6859 57.2083 29.9645 56.4871 29.0746 56.4871H22.5375ZM27.4633 70.7254H24.1489V59.7099H27.4633V70.7254Z" fill="#333333"/>
<path d="M37.3263 48.2524C36.4364 48.2524 35.715 48.9737 35.715 49.8638V72.3366C35.715 73.2267 36.4364 73.948 37.3263 73.948H43.8634C44.7532 73.948 45.4747 73.2267 45.4747 72.3366V49.8638C45.4747 48.9737 44.7532 48.2524 43.8634 48.2524H37.3263ZM42.2522 70.7253H38.9379V51.4751H42.2522V70.7253Z" fill="#333333"/>
<path d="M52.1153 56.4871C51.2254 56.4871 50.504 57.2083 50.504 58.0984V72.3365C50.504 73.2266 51.2254 73.9478 52.1153 73.9478H58.6523C59.5422 73.9478 60.2637 73.2266 60.2637 72.3365V58.0984C60.2637 57.2083 59.5422 56.4871 58.6523 56.4871H52.1153ZM57.041 70.7254H53.7266V59.7099H57.041V70.7254Z" fill="#333333"/>
<path d="M66.9043 65.9951C66.0144 65.9951 65.2929 66.7163 65.2929 67.6064V72.3367C65.2929 73.2268 66.0144 73.948 66.9043 73.948H73.4413C74.3312 73.948 75.0527 73.2268 75.0527 72.3367C75.0527 71.4466 74.3312 70.7253 73.4413 70.7253H68.5156V67.6064C68.5156 66.7163 67.7942 65.9951 66.9043 65.9951Z" fill="#333333"/>
<path d="M109.178 81.5041L99.9341 65.4927C102.276 62.9964 103.982 59.9463 104.893 56.5466C106.349 51.113 105.601 45.4374 102.789 40.5657C96.9822 30.5082 84.0763 27.0507 74.0195 32.8568C63.9624 38.663 60.5045 51.5689 66.3109 61.6259C69.1236 66.4977 73.6652 69.9825 79.0988 71.4387C80.9134 71.9249 82.7544 72.1653 84.5838 72.1653C86.1826 72.1653 87.7723 71.9814 89.3269 71.6175L98.569 87.6293C99.7019 89.5924 101.765 90.6909 103.884 90.6906C104.922 90.6906 105.974 90.4266 106.936 89.8714C108.826 88.7807 110 86.7468 110 84.5635C110 83.4938 109.716 82.4361 109.178 81.5041ZM79.9328 68.3258C75.3307 67.0926 71.4839 64.1409 69.1015 60.0146C64.1837 51.4965 67.1127 40.5657 75.6306 35.6477C78.4328 34.0299 81.495 33.2616 84.5195 33.2616C90.6888 33.2616 96.6975 36.4613 99.9975 42.177C102.38 46.3033 103.013 51.1102 101.779 55.7126C100.546 60.315 97.5945 64.1613 93.4682 66.5437C89.3421 68.9261 84.5352 69.5586 79.9328 68.3258ZM105.325 87.0802C103.939 87.8807 102.16 87.4042 101.36 86.0184L92.4683 70.6133C93.3595 70.2495 94.2322 69.8242 95.08 69.3347C95.9284 68.8449 96.7319 68.2996 97.4927 67.7092L106.387 83.115C106.642 83.5578 106.777 84.0588 106.777 84.5637C106.777 85.5988 106.221 86.5633 105.325 87.0802Z" fill="#333333"/>
<path d="M99.1594 55.6351C100.297 51.9708 100.026 48.0477 98.3965 44.5887C98.0171 43.7835 97.0572 43.4385 96.2522 43.8177C95.4469 44.1971 95.1019 45.157 95.4813 45.962C96.7667 48.6905 96.98 51.7862 96.0818 54.6793C95.1786 57.5883 93.2274 60.0296 90.5876 61.5537C87.7942 63.1667 84.5395 63.5947 81.4241 62.76C78.3084 61.9251 75.7041 59.9269 74.0914 57.1335C70.762 51.3668 72.745 43.9668 78.5116 40.6373C82.728 38.2034 87.9605 38.5286 91.8429 41.466C92.5528 42.0031 93.5632 41.8632 94.1001 41.1534C94.637 40.4438 94.4971 39.4331 93.7872 38.8962C88.8693 35.1749 82.2405 34.7631 76.9001 37.8463C73.3612 39.8895 70.8297 43.1886 69.772 47.1357C68.7143 51.0828 69.2572 55.2057 71.3004 58.7446C73.3436 62.2837 76.6427 64.815 80.5898 65.8729C81.9079 66.2261 83.2455 66.4008 84.5743 66.4008C87.2251 66.4008 89.8416 65.7055 92.1987 64.3445C95.5432 62.4139 98.0152 59.321 99.1594 55.6351Z" fill="#333333"/>
</svg>
