<svg width="108" height="108" viewBox="0 0 108 108" fill="none" xmlns="http://www.w3.org/2000/svg">
<path d="M106.071 48.2143H96.4286V30.8571C96.4286 26.5967 92.9747 23.1429 88.7143 23.1429H73.2857V7.71429C73.2857 3.45383 69.8319 0 65.5714 0H7.71429C3.45383 0 0 3.45383 0 7.71429V100.286C0 104.546 3.45383 108 7.71429 108H77.1429C81.4033 108 84.8571 104.546 84.8571 100.286V84.8571H100.286C104.546 84.8571 108 81.4033 108 77.1429V50.1429C108 49.0778 107.136 48.2143 106.071 48.2143ZM3.85714 7.71429C3.85714 5.58394 5.58394 3.85714 7.71429 3.85714H65.5714C67.7018 3.85714 69.4286 5.58394 69.4286 7.71429V15.4286H3.85714V7.71429ZM7.71429 104.143C5.58394 104.143 3.85714 102.416 3.85714 100.286V19.2857H69.4286V100.286C69.4264 101.64 69.7839 102.971 70.4642 104.143H7.71429ZM81 30.8571V100.286C81 102.416 79.2732 104.143 77.1429 104.143C75.0125 104.143 73.2857 102.416 73.2857 100.286V27H82.0723C81.3782 28.1675 81.008 29.4989 81 30.8571ZM84.8571 81V30.8571C84.8571 28.7268 86.5839 27 88.7143 27C90.8446 27 92.5714 28.7268 92.5714 30.8571V77.1429C92.5794 78.5011 92.9497 79.8325 93.6437 81H84.8571ZM104.143 77.1429C104.143 79.2732 102.416 81 100.286 81C98.1554 81 96.4286 79.2732 96.4286 77.1429V52.0714H104.143V77.1429Z" fill="#333333"/>
</svg>
