<svg width="117" height="45" viewBox="0 0 117 45" fill="none" xmlns="http://www.w3.org/2000/svg">
<path d="M30.8446 43.7755L30.7222 45H0L4.46756 2.32654H15.9119L11.5871 43.7755H30.8446Z" fill="black"/>
<path d="M55.5284 15.9796L54.7124 23.6939L53.264 37.4286L53.0396 40.102L52.9172 41.2245L52.4684 44.8979H63.9331L66.3403 21.8367L67.1563 14.2857L55.5284 15.9796Z" fill="black"/>
<path d="M53.366 36.8775V37.4898L53.1416 39.5306C52.0672 41.0041 50.7016 42.2409 49.1294 43.1642C47.5573 44.0875 45.8122 44.6776 44.0025 44.8979C43.5537 44.8979 43.1049 44.8979 42.6561 44.8979C41.372 44.9615 40.0898 44.7407 38.901 44.2511C37.7122 43.7616 36.6461 43.0154 35.7789 42.066C34.9117 41.1165 34.2648 39.9872 33.8843 38.7587C33.5039 37.5302 33.3993 36.2328 33.5781 34.9592L34.6797 23.6939L35.4957 15.9796L47.2256 14.2857L44.8796 37.6735C44.7727 38.1285 44.7693 38.6018 44.8696 39.0583C44.9699 39.5149 45.1714 39.9431 45.4592 40.3113C45.7471 40.6796 46.1138 40.9785 46.5326 41.186C46.9513 41.3935 47.4112 41.5043 47.8784 41.5102C49.796 41.5102 51.9584 39.6531 53.4272 36.9184L53.366 36.8775Z" fill="black"/>
<path d="M73.4394 15.9796L85.1693 14.2857L81.9461 45H70.4814L73.4394 15.9796ZM74.235 5.91836C74.4152 4.23537 75.2318 2.68497 76.5174 1.58467C77.8031 0.484381 79.4606 -0.0825465 81.1506 -6.6068e-06C81.9009 -0.0274773 82.6478 0.113831 83.3363 0.413504C84.0247 0.713178 84.6372 1.16358 85.1286 1.73152C85.6199 2.29945 85.9776 2.97045 86.1753 3.69507C86.3731 4.41968 86.4057 5.17944 86.2709 5.91836C86.1432 7.53913 85.412 9.05291 84.2221 10.1602C83.0321 11.2675 81.4701 11.8876 79.845 11.898C79.0665 11.9484 78.2866 11.8244 77.5622 11.5351C76.8377 11.2457 76.1869 10.7983 75.6573 10.2254C75.1276 9.65244 74.7324 8.96851 74.5004 8.22341C74.2685 7.47831 74.2057 6.69082 74.3166 5.91836H74.235Z" fill="black"/>
<path d="M116.667 14.5102H90.5753L90.4529 15.7347H104.039L96.2668 28.3061L86.5565 44.0408V45H113.362L113.505 43.7755H99.0412L116.605 15.4898L116.667 14.5102Z" fill="black"/>
</svg>
