<svg width="110" height="110" viewBox="0 0 110 110" fill="none" xmlns="http://www.w3.org/2000/svg">
<g clip-path="url(#clip0)">
<path d="M54.9999 25.6669C48.9247 25.6669 43.9999 30.5917 43.9999 36.6669C44.0058 42.7395 48.9272 47.6609 54.9999 47.6668C61.075 47.6668 65.9998 42.742 65.9998 36.6669C65.9998 30.5917 61.075 25.6669 54.9999 25.6669ZM54.9999 44.0002C50.9498 44.0002 47.6665 40.7169 47.6665 36.6669C47.6665 32.6168 50.9498 29.3335 54.9999 29.3335C59.0499 29.3335 62.3332 32.6168 62.3332 36.6669C62.3332 40.7169 59.0501 44.0002 54.9999 44.0002Z" fill="#333333"/>
<path d="M74.654 52.5255C74.0488 51.9194 73.4108 51.3469 72.7428 50.8107L72.7611 50.7575C78.8042 32.1091 72.0443 11.6963 56.065 0.340927C55.4277 -0.113968 54.572 -0.113968 53.9347 0.340927C37.9554 11.6963 31.1954 32.1091 37.2385 50.7575L37.2569 50.8107C27.1754 58.9034 25.563 73.6365 33.6555 83.718C34.1918 84.386 34.7642 85.024 35.3704 85.6293C35.7141 85.973 36.1802 86.1664 36.6665 86.1664C36.8634 86.1662 37.0589 86.1346 37.2459 86.0729C37.9047 85.8536 38.383 85.2809 38.4815 84.5934L39.8657 74.9061C39.9952 74.0039 40.7675 73.3338 41.6789 73.3331H47.2632L45.8698 80.2998C45.6673 81.2918 46.3073 82.2603 47.2994 82.4626C47.4202 82.4874 47.5432 82.4998 47.6665 82.4998H62.3331C63.3456 82.5 64.1667 81.6794 64.1669 80.6669C64.1669 80.5436 64.1545 80.4205 64.1298 80.2998L62.7365 73.3331H68.3208C69.2326 73.334 70.0054 74.005 70.134 74.9079L71.5181 84.5934C71.6167 85.2809 72.0949 85.8536 72.7538 86.0729C72.9408 86.1346 73.1363 86.1662 73.3331 86.1664C73.8194 86.1664 74.2855 85.973 74.6293 85.6293C83.7776 76.4949 83.7886 61.6738 74.654 52.5255ZM54.9998 4.11231C59.406 7.47372 63.0919 11.6865 65.8385 16.5001H44.1612C46.9077 11.6865 50.5936 7.47372 54.9998 4.11231ZM41.6789 69.6667C38.9463 69.6784 36.6328 71.6859 36.2357 74.3893L35.4419 79.9498C32.9925 76.2518 31.8628 71.8353 32.2354 67.4154H32.2335C32.6371 62.5043 34.86 57.921 38.4669 54.5637L43.3178 69.6667H41.6789ZM49.9032 78.8333L51.0032 73.3333H58.9965L60.0965 78.8333H49.9032ZM47.1697 69.6667L41.1344 50.8897L40.731 49.6339C37.6054 39.9523 38.1701 29.4569 42.3169 20.1668H67.6828C71.8296 29.4569 72.3945 39.9523 69.2686 49.6339L68.8653 50.8897L62.83 69.6667H47.1697ZM74.5578 79.9498L73.7639 74.3893C73.3668 71.6859 71.0534 69.6784 68.3208 69.6667H66.6818L71.5364 54.5637C75.1412 57.9219 77.3623 62.505 77.7643 67.4154C78.1371 71.8353 77.0073 76.2518 74.5578 79.9498Z" fill="#333333"/>
<path d="M47.6666 86.0201V91.9967C43.2146 90.6378 38.3762 91.8207 35.0533 95.0804C32.2675 91.7655 28.1631 89.8462 23.8333 89.8334C22.4984 89.8334 21.1701 90.0185 19.8861 90.3834C18.4057 81.5754 10.7649 75.1349 1.83333 75.1667H0V78.8334H1.83333C9.32775 78.8103 15.6195 84.4718 16.3845 91.927C14.6027 92.9647 13.059 94.3658 11.8543 96.0392C8.54996 93.2161 4.34614 91.6653 0 91.6667V95.3334C8.09644 95.3425 14.6575 101.904 14.6666 110H18.3333C18.3354 105.939 16.9803 101.994 14.4833 98.791C15.5716 96.9877 17.1529 95.5334 19.041 94.6C19.0593 94.6 19.0795 94.6 19.0978 94.5817C20.5745 93.8688 22.1934 93.4991 23.8333 93.5C27.3865 93.5165 30.7138 95.2447 32.7708 98.142C31.729 100.1 31.1785 102.282 31.1666 104.5H34.8333C34.8317 102.626 35.3613 100.789 36.3604 99.2035H36.3494C36.3751 99.1687 36.4099 99.143 36.4356 99.1064C38.9131 95.4654 43.6355 94.1103 47.6666 95.8834V100.687H51.3332V86.0201H47.6666Z" fill="#333333"/>
<path d="M108.166 78.8334H110V75.1667H108.166C99.2349 75.1349 91.5941 81.5754 90.1137 90.3834C88.8297 90.0185 87.5014 89.8334 86.1665 89.8334C81.8376 89.8448 77.7332 91.762 74.9465 95.0749C71.6236 91.8152 66.7852 90.6323 62.3332 91.9912V86.0146H58.6666V100.681H62.3332V95.8834C66.364 94.1098 71.0862 95.4642 73.5642 99.1045C73.5899 99.1412 73.6247 99.1669 73.6504 99.2017H73.6394C74.639 100.788 75.1684 102.625 75.1665 104.5H78.8332C78.8213 102.282 78.2708 100.1 77.229 98.142C79.286 95.2447 82.6133 93.5165 86.1665 93.5C87.8067 93.5003 89.4255 93.8713 90.902 94.5854C90.9203 94.5945 90.9405 94.5964 90.9588 94.6037C92.8497 95.5348 94.4344 96.9877 95.5257 98.791C93.0252 101.992 91.667 105.938 91.6665 110H95.3332C95.3423 101.904 101.903 95.3425 110 95.3334V91.6667C105.654 91.6658 101.45 93.2163 98.1455 96.0392C96.9408 94.3658 95.3971 92.9647 93.6153 91.927C94.3805 84.4716 100.672 78.8103 108.166 78.8334Z" fill="#333333"/>
<path d="M49.4999 53.1669H45.8333V56.8335H49.4999V53.1669Z" fill="#333333"/>
<path d="M56.8332 53.1669H53.1666V56.8335H56.8332V53.1669Z" fill="#333333"/>
<path d="M64.1665 53.1669H60.4999V56.8335H64.1665V53.1669Z" fill="#333333"/>
<path d="M23.8333 97.1667H20.1666V100.833H23.8333V97.1667Z" fill="#333333"/>
<path d="M3.66666 67.8335H0V71.5002H3.66666V67.8335Z" fill="#333333"/>
<path d="M106.333 84.3334H102.666V88H106.333V84.3334Z" fill="#333333"/>
<path d="M91.6665 77.0001H87.9998V80.6668H91.6665V77.0001Z" fill="#333333"/>
<path d="M71.4999 106.333H67.8332V110H71.4999V106.333Z" fill="#333333"/>
<path d="M110 64.1667H106.333V67.8334H110V64.1667Z" fill="#333333"/>
</g>
<defs>
<clipPath id="clip0">
<rect width="110" height="110" fill="white"/>
</clipPath>
</defs>
</svg>
